<svg viewBox="0 0 225 225" fill="none" xmlns="http://www.w3.org/2000/svg">
  <g>
    <path d="M80.17,182.12c-13.82-24.76-11.15-40.98,4.01-63.51,11.43-16.99,59.95-84.38,72.78-93.8,12.77-9.38,32.43-11.37,43.39,1.14l-120.18,156.18Z" fill="#1A1A1A"/>
    <path d="M80.17,102.53L24.65,23.92c11.99-7.73,24.7-8.69,37.6-2.52,8.37,4,34.62,37.97,39.83,47.21,1.32,2.34,2.47,3.12,1.25,6.07-.7,1.7-21.66,28.87-23.16,27.85Z" fill="#1A1A1A"/>
    <path d="M142.14,122.92c10.09,10.21,11.87,26.98,9.34,40.77-1.96,10.67-27.73,46.53-36.21,54.48-1.35,1.26-2.17,3.41-4.57,2.8l-20.93-30.21,52.37-67.85Z" fill="#1A1A1A"/>
  </g>
  <g>
    <path d="M119.45,18.47l1.37.27c5.31,1.3,5.65,6.72,4.11,11.15-1.31,3.75-3.83,7.03-6.36,10.03,1.41,3.24,3.69,6.14,6.63,8.11-2.2.62-4.67.77-6.82-.13-2.13-.89-3.16-3.02-4.28-4.89-1.1,1.07-2.35,2.06-3.62,2.93-3.56,2.41-8.61,4.74-12.92,3.05-5.68-2.23-5.58-9.69-1.45-13.41,3.45-3.1,8.32-2.73,12.33-1l1.68,3.29-1.19.98c-1.08-.24-2.14-.55-3.23-.78-2.11-.44-4.69-.99-6.63.24-1.43.9-1.93,2.49-1.46,4.11-1.26-.5-2.13-1.56-2.49-2.86l-.42-1.8c-.37,2.68.26,4.91,2.95,5.9,5.29,1.94,9.87-2.33,13.4-5.68-1.94-3.43-2.95-7.77-6.38-10.08l-1.16-.62c.76-.07,1.53-.06,2.29-.07,1.52-.02,3.05,0,4.57.31,1.19.24,1.41.32,2.13,1.3,1.29,1.74,2.2,3.76,3.21,5.67,1.91-2.4,4.13-5.42,3.75-8.66,2.47.52,3.73,2.81,3.86,5.2.03.58-.05,1.11-.08,1.68,0,.08-.05.28.07.26.12-.55.29-1.09.36-1.65.15-1.27-.01-2.79-.66-3.91-.92-1.6-2.96-2.51-4.72-2.74.19-.27.48-.4.69-.66.67-.84.6-1.83.48-2.83-.1-.02-.11.13-.12.2-.39,1.58-1.2,2.76-2.97,2.93-.95.09-1.45-.44-2.33-.51s-1.9.12-2.7.44c-.87.34-2.07,1.13-1.16,2.11.07.05-.04.12-.08.14-.19.05-1.18-.1-1.43-.16-.65-.16-1.49-.75-1.63-1.43-.45-2.16,1.62-4.44,3.43-5.32-.01.4-.19.79.07,1.16,1.2-.82,2.65-1.52,4.14-1.47l.89-1-2.58.95c.49-1.29,1.98-1.81,3.17-2.26,3.98-1.49,8.51-2.04,11.8-4.95,0,.25-.16.6-.27.83-1.48,3.07-5.04,4.89-8.22,5.65Z" fill="#1A1A1A"/>
    <path d="M120.34,41.75l-.87-1.69,1.29-1.53c1.84.24,3.91.2,5.55-.78.84-.5,1.44-1.31,2.09-2.02-.28,1.94-1.32,3.63-2.77,4.91l-1.27.98c2.9-1,5.3-3.75,5.5-6.88.11-1.84-.62-4.1-1.53-5.68.21-.04.5.22.68.34,3.89,2.7,3.77,8.49-.12,11.14-2.47,1.68-5.71,1.82-8.55,1.2Z" fill="#1A1A1A"/>
    <path d="M120.76,11.92c.06.63.14,2.44-.31,2.89-.1.1-1.97.79-2.27.89-.39.14-.79.29-1.2.36l.95-.69c1.16-.95,2.02-1.95,2.67-3.3.05-.1-.05-.2.16-.16Z" fill="#1A1A1A"/>
  </g>
</svg>
